# xmcd
#
# Track frame offsets:
#	150
#	14091
#	29438
#	45466
#	58868
#	71761
#	86253
#	98748
#	110722
#	124680
#	141500
#	154020
#	170061
#
# Disc length: 2429 seconds
# Revision: 0
# Processed by: cddbd v1.5.2PL0 Copyright (c) Steve Scherf et al.
# Submitted via: dBpowerAMP V12.0
#
DISCID=b8097b0d
DTITLE=Big Country Bluegrass - Country Livin'
DYEAR=2015
DGENRE=Country
TTITLE0=The Bluefield West Virginia Blues
TTITLE1=Easy Memories
TTITLE2=Country Livin’
TTITLE3=The Cotton Mill Song
TTITLE4=A Heart is Like a River
TTITLE5=The Hound Dog From Harlan
TTITLE6=Just an Old Friend
TTITLE7=Hold Me Closer, Jesus
TTITLE8=Blue River
TTITLE9=Till I Met You
TTITLE10=The Boy From the Country
TTITLE11=Snow White Grave
TTITLE12=My Lonely Heart
EXTD=
EXTT0=
EXTT1=
EXTT2=
EXTT3=
EXTT4=
EXTT5=
EXTT6=
EXTT7=
EXTT8=
EXTT9=
EXTT10=
EXTT11=
EXTT12=
PLAYORDER=
